<svg width="120" height="33" viewBox="0 0 120 33" fill="none" xmlns="http://www.w3.org/2000/svg">
<g clip-path="url(#clip0_5510_236)">
<path d="M14.6152 12.6801L8.32601 4.90416C7.97844 4.47443 8.2843 3.83368 8.837 3.83368H21.4408C21.9941 3.83368 22.2997 4.47565 21.9509 4.90517L15.6364 12.6811C15.373 13.0054 14.8779 13.0049 14.6152 12.6801Z" fill="#EE5F47"/>
<path d="M9.99319 28.7495L15.3612 22.14C15.526 21.9371 15.551 21.6544 15.4242 21.4258L5.85191 4.1635C5.73905 3.95996 5.52463 3.83368 5.29189 3.83368H0.686717C0.241034 3.83368 -0.0683479 4.27763 0.0859514 4.69575L8.89534 28.5675C9.06715 29.033 9.68033 29.1347 9.99319 28.7495Z" fill="white"/>
<path d="M113.228 21.1437L116.853 11.5638C117.015 11.1754 117.079 10.9165 117.079 10.6576C117.079 9.91323 116.562 9.75141 114.879 9.55722V8.4892H120.445V9.55722C119.313 9.88087 119.086 10.1074 118.795 10.7871L111.675 28.717C110.606 31.3385 109.506 32.7625 107.402 32.7625C106.302 32.7625 105.234 32.2123 104.91 31.2738V29.6232C105.59 29.785 106.173 29.9145 107.111 29.9145C108.859 29.9145 109.927 29.429 110.606 27.649L111.157 26.2573L104.198 10.7871C103.907 10.1074 103.713 9.88087 102.548 9.55722V8.4892H111.351V9.55722C109.7 9.75141 109.15 9.91323 109.15 10.6576C109.15 10.9165 109.215 11.1754 109.344 11.5638L113.228 21.1437Z" fill="white"/>
<path d="M86.0104 23.1526V3.53972L84.0685 2.53642V1.85677L89.7969 0.301025H90.5089V11.3373C91.8682 9.71908 93.7454 8.16559 96.464 8.16559C99.5062 8.16559 101.124 9.94563 101.124 13.4734V23.1503C101.124 24.2831 101.642 24.4773 103.131 24.5744V25.6424H94.6516V24.5744C96.1403 24.4773 96.6258 24.2831 96.6258 23.1503V13.6999C96.6258 11.8228 95.8814 10.8842 94.1014 10.8842C92.7744 10.8842 91.5446 11.4991 90.5089 12.2111V23.1503C90.5089 24.2831 90.9944 24.4773 92.4831 24.5744V25.6424L84.0038 25.6446V24.5766C85.4925 24.4795 86.0104 24.2853 86.0104 23.1526Z" fill="white"/>
<path d="M72.5089 15.7712C72.5089 20.0109 74.4508 22.7619 77.7196 22.7619C79.7585 22.7619 81.1826 21.9528 82.2506 20.3669L82.8008 20.6906C81.7975 24.2183 79.4025 25.966 76.1013 25.966C71.7645 25.966 68.5604 22.7295 68.5604 17.6483C68.5604 12.2434 71.8292 8.16553 76.9428 8.16553C80.1145 8.16553 82.3153 9.46011 82.3153 11.9522C82.3153 12.9878 81.7651 13.7969 81.0855 14.1206H78.6258C78.6905 13.6028 78.7552 13.1173 78.7552 12.5347C78.7552 10.8194 78.205 9.39538 76.3926 9.39538C73.9329 9.39538 72.5089 12.1787 72.5089 15.7712Z" fill="white"/>
<path d="M62.9098 4.28174V8.48912H67.1172V9.97788H62.9098V20.6905C62.9098 22.6647 63.6542 23.5062 65.1753 23.5062C66.0815 23.5062 66.7935 23.2149 67.6026 22.6L67.991 23.1826C66.9554 24.8008 65.3371 25.9659 63.0069 25.9659C60.353 25.9659 58.4111 24.5743 58.4111 20.9494V9.97788H56.4045V9.2335C58.6377 8.2302 60.5472 6.41779 61.9389 4.28174H62.9098Z" fill="white"/>
<path d="M54.7193 8.16583V23.1506C54.7193 24.2833 55.2371 24.4775 56.7583 24.5746V25.6426H48.1823V24.5746C49.7034 24.4775 50.2212 24.2833 50.2212 23.1506V11.6936L48.2793 10.5608V9.94588L54.0073 8.16583H54.7193Z" fill="white"/>
<path d="M49.7999 4.15251C49.7999 5.51858 50.8733 6.72202 52.4345 6.72202C54.0282 6.72202 55.1016 5.51858 55.1016 4.15251C55.1016 2.75392 54.0282 1.58301 52.4345 1.58301C50.8733 1.58301 49.7999 2.75392 49.7999 4.15251Z" fill="white"/>
<path d="M37.5975 24.7361C40.3484 24.7361 41.999 21.5968 41.999 17.6159C41.999 13.6351 40.5426 10.8841 37.5004 10.8841C36.4323 10.8841 35.3967 11.3372 34.6523 12.0169V21.0142C34.6523 23.4739 35.6232 24.7361 37.5975 24.7361ZM30.2891 30.0115V11.6933L28.3472 10.5605V9.94557L34.005 8.16553H34.7817L34.6523 11.2078C35.7203 9.58956 37.5004 8.16553 40.0895 8.16553C44.038 8.16553 46.53 11.046 46.53 16.0301C46.53 22.3735 42.711 25.966 37.8887 25.966C36.5618 25.966 35.3643 25.6747 34.6523 25.0598V29.9144C34.6523 31.1443 35.2672 31.2737 37.3062 31.4356V32.5036H28.2825V31.4356C29.7712 31.3385 30.2891 31.1443 30.2891 30.0115Z" fill="white"/>
</g>
<defs>
<clipPath id="clip0_5510_236">
<rect width="120" height="32.3936" fill="white" transform="translate(0 0.303223)"/>
</clipPath>
</defs>
</svg>
